<svg xmlns="http://www.w3.org/2000/svg" width="28" height="28" viewBox="0 0 24 24" fill="currentColor">
  <path d="M12 2.163c3.204 0 3.584.012 4.85.07 1.17.056 1.97.24 2.427.403a4.92 4.92 0 0 1 1.777 1.153 4.92 4.92 0 0 1 1.153 1.777c.163.457.347 1.257.403 2.427.058 1.266.07 1.646.07 4.85s-.012 3.584-.07 4.85c-.056 1.17-.24 1.97-.403 2.427a4.92 4.92 0 0 1-1.153 1.777 4.92 4.92 0 0 1-1.777 1.153c-.457.163-1.257.347-2.427.403-1.266.058-1.646.07-4.85.07s-3.584-.012-4.85-.07c-1.17-.056-1.97-.24-2.427-.403a4.92 4.92 0 0 1-1.777-1.153 4.92 4.92 0 0 1-1.153-1.777c-.163-.457-.347-1.257-.403-2.427C2.175 15.747 2.163 15.367 2.163 12s.012-3.584.07-4.85c.056-1.17.24-1.97.403-2.427a4.92 4.92 0 0 1 1.153-1.777 4.92 4.92 0 0 1 1.777-1.153c.457-.163 1.257-.347 2.427-.403C8.416 2.175 8.796 2.163 12 2.163zM12 5.838a6.162 6.162 0 1 0 0 12.324 6.162 6.162 0 0 0 0-12.324zm0 10.162a3.999 3.999 0 1 1 0-7.998 3.999 3.999 0 0 1 0 7.998zm6.406-11.845a1.44 1.44 0 1 0 0 2.88 1.44 1.44 0 0 0 0-2.88z"/>
</svg>
